<svg width="576" height="502" viewBox="0 0 576 502" fill="none" xmlns="http://www.w3.org/2000/svg">
<rect x="87" y="205" width="36" height="94" fill="#E38560"/>
<rect x="181" y="438" width="346" height="50" fill="#E38560"/>
<path d="M33.1483 501.086H542.852C561.131 501.086 576 486.213 576 467.934V33.1522C576 14.8728 561.131 0 542.852 0H33.1483C14.8689 0 0 14.8728 0 33.1522V467.934C0 486.213 14.8689 501.086 33.1483 501.086ZM520.505 484.88H190.549V450.576H520.505V484.88ZM156.475 16.2062H542.852C552.197 16.2062 559.794 23.8068 559.794 33.1522V68.4173H156.475V16.2062ZM352.623 190.47L367.322 201.287H337.924L352.623 190.47ZM323.364 191.883C318.83 195.221 316.596 198.453 315.579 201.287H208.765L277.927 150.386C283.331 146.406 292.772 146.414 298.161 150.386L338.954 180.409L323.364 191.883ZM366.292 180.409L407.085 150.386C412.482 146.414 421.93 146.421 427.327 150.386L496.481 201.287H389.667C388.65 198.453 386.416 195.221 381.882 191.883L366.292 180.409ZM409.103 110.966V132.233C404.89 133.198 400.877 134.836 397.479 137.337L352.623 170.349L307.767 137.337C304.373 134.836 300.362 133.197 296.151 132.23V126.037C308.416 122.508 317.421 111.184 317.421 97.795C317.421 93.0362 316.177 88.6033 314.16 84.6235H391.087C389.07 88.6033 387.825 93.0362 387.825 97.795H404.031C404.031 90.5307 409.942 84.6235 417.206 84.6235C424.471 84.6235 430.374 90.5307 430.374 97.795C430.374 105.059 424.471 110.966 417.206 110.966H409.103ZM156.475 84.6235H261.929C259.911 88.6033 258.666 93.0362 258.666 97.795H274.872C274.872 90.5307 280.783 84.6235 288.047 84.6235C295.312 84.6235 301.215 90.5307 301.215 97.795C301.215 105.059 295.312 110.966 288.047 110.966H279.944V132.226C275.73 133.192 271.716 134.832 268.32 137.337L194.205 191.883C184.741 198.85 185.137 205.406 186.213 208.694C187.297 211.978 190.858 217.494 202.617 217.494H331.776H373.47H502.629C514.388 217.494 517.949 211.978 519.033 208.694C520.109 205.406 520.505 198.85 511.041 191.883L436.934 137.337C433.54 134.837 429.526 133.198 425.309 132.232V126.037C437.575 122.508 446.58 111.184 446.58 97.795C446.58 93.0362 445.336 88.6033 443.319 84.6235H559.794V303.478H156.475V84.6235ZM156.475 319.684H559.794V467.934C559.794 477.279 552.197 484.88 542.852 484.88H536.711V434.37H174.343V484.88H156.475V319.684ZM16.2062 33.1522C16.2062 23.8068 23.8028 16.2062 33.1483 16.2062H140.269V484.88H33.1483C23.8028 484.88 16.2062 477.279 16.2062 467.934V33.1522Z" fill="#462E22"/>
<path d="M126.191 201.877H82.9617V299.213H126.191V201.877ZM109.985 283.007H99.1679V218.083H109.985V283.007Z" fill="#462E22"/>
</svg>
