<svg width="512" height="512" viewBox="0 0 512 512" fill="none" xmlns="http://www.w3.org/2000/svg">
<path d="M48 56C52.4183 56 56 52.4183 56 48C56 43.5817 52.4183 40 48 40C43.5817 40 40 43.5817 40 48C40 52.4183 43.5817 56 48 56Z" fill="#E38560"/>
<path d="M104 56C108.418 56 112 52.4183 112 48C112 43.5817 108.418 40 104 40C99.5817 40 96 43.5817 96 48C96 52.4183 99.5817 56 104 56Z" fill="#E38560"/>
<path d="M168 56C172.418 56 176 52.4183 176 48C176 43.5817 172.418 40 168 40C163.582 40 160 43.5817 160 48C160 52.4183 163.582 56 168 56Z" fill="#E38560"/>
<path d="M224 56C228.418 56 232 52.4183 232 48C232 43.5817 228.418 40 224 40C219.582 40 216 43.5817 216 48C216 52.4183 219.582 56 224 56Z" fill="#E38560"/>
<path d="M496 8H16C13.8783 8 11.8434 8.84285 10.3431 10.3431C8.84285 11.8434 8 13.8783 8 16V496C8 498.122 8.84285 500.157 10.3431 501.657C11.8434 503.157 13.8783 504 16 504H496C498.122 504 500.157 503.157 501.657 501.657C503.157 500.157 504 498.122 504 496V16C504 13.8783 503.157 11.8434 501.657 10.3431C500.157 8.84285 498.122 8 496 8ZM264 248V144H488V248H264ZM248 368H24V264H248V368ZM488 128H264V24H488V128ZM248 24V248H144V24H248ZM24 24H128V248H24V24ZM24 384H248V488H24V384ZM264 488V264H368V488H264ZM488 488H384V264H488V488Z" fill="#462E22"/>
<path d="M464 56C468.418 56 472 52.4183 472 48C472 43.5817 468.418 40 464 40C459.582 40 456 43.5817 456 48C456 52.4183 459.582 56 464 56Z" fill="#E38560"/>
<path d="M464 112C468.418 112 472 108.418 472 104C472 99.5817 468.418 96 464 96C459.582 96 456 99.5817 456 104C456 108.418 459.582 112 464 112Z" fill="#E38560"/>
<path d="M464 176C468.418 176 472 172.418 472 168C472 163.582 468.418 160 464 160C459.582 160 456 163.582 456 168C456 172.418 459.582 176 464 176Z" fill="#E38560"/>
<path d="M464 232C468.418 232 472 228.418 472 224C472 219.582 468.418 216 464 216C459.582 216 456 219.582 456 224C456 228.418 459.582 232 464 232Z" fill="#E38560"/>
<path d="M224 216C226.122 216 228.157 215.157 229.657 213.657C231.157 212.157 232 210.122 232 208V112C232 109.878 231.157 107.843 229.657 106.343C228.157 104.843 226.122 104 224 104C221.878 104 219.843 104.843 218.343 106.343C216.843 107.843 216 109.878 216 112V208C216 210.122 216.843 212.157 218.343 213.657C219.843 215.157 221.878 216 224 216Z" fill="#E38560"/>
<path d="M288 56H352C354.122 56 356.157 55.1571 357.657 53.6569C359.157 52.1566 360 50.1217 360 48C360 45.8783 359.157 43.8434 357.657 42.3431C356.157 40.8429 354.122 40 352 40H288C285.878 40 283.843 40.8429 282.343 42.3431C280.843 43.8434 280 45.8783 280 48C280 50.1217 280.843 52.1566 282.343 53.6569C283.843 55.1571 285.878 56 288 56Z" fill="#E38560"/>
<path d="M464 472C468.418 472 472 468.418 472 464C472 459.582 468.418 456 464 456C459.582 456 456 459.582 456 464C456 468.418 459.582 472 464 472Z" fill="#E38560"/>
<path d="M408 472C412.418 472 416 468.418 416 464C416 459.582 412.418 456 408 456C403.582 456 400 459.582 400 464C400 468.418 403.582 472 408 472Z" fill="#E38560"/>
<path d="M344 472C348.418 472 352 468.418 352 464C352 459.582 348.418 456 344 456C339.582 456 336 459.582 336 464C336 468.418 339.582 472 344 472Z" fill="#E38560"/>
<path d="M288 472C292.418 472 296 468.418 296 464C296 459.582 292.418 456 288 456C283.582 456 280 459.582 280 464C280 468.418 283.582 472 288 472Z" fill="#E38560"/>
<path d="M48 472C52.4183 472 56 468.418 56 464C56 459.582 52.4183 456 48 456C43.5817 456 40 459.582 40 464C40 468.418 43.5817 472 48 472Z" fill="#E38560"/>
<path d="M48 416C52.4183 416 56 412.418 56 408C56 403.582 52.4183 400 48 400C43.5817 400 40 403.582 40 408C40 412.418 43.5817 416 48 416Z" fill="#E38560"/>
<path d="M48 352C52.4183 352 56 348.418 56 344C56 339.582 52.4183 336 48 336C43.5817 336 40 339.582 40 344C40 348.418 43.5817 352 48 352Z" fill="#E38560"/>
<path d="M48 296C52.4183 296 56 292.418 56 288C56 283.582 52.4183 280 48 280C43.5817 280 40 283.582 40 288C40 292.418 43.5817 296 48 296Z" fill="#E38560"/>
<path d="M288 296C285.878 296 283.843 296.843 282.343 298.343C280.843 299.843 280 301.878 280 304V400C280 402.122 280.843 404.157 282.343 405.657C283.843 407.157 285.878 408 288 408C290.122 408 292.157 407.157 293.657 405.657C295.157 404.157 296 402.122 296 400V304C296 301.878 295.157 299.843 293.657 298.343C292.157 296.843 290.122 296 288 296Z" fill="#E38560"/>
<path d="M224 456H160C157.878 456 155.843 456.843 154.343 458.343C152.843 459.843 152 461.878 152 464C152 466.122 152.843 468.157 154.343 469.657C155.843 471.157 157.878 472 160 472H224C226.122 472 228.157 471.157 229.657 469.657C231.157 468.157 232 466.122 232 464C232 461.878 231.157 459.843 229.657 458.343C228.157 456.843 226.122 456 224 456Z" fill="#E38560"/>
</svg>
