<svg width="474" height="474" viewBox="0 0 474 474" fill="none" xmlns="http://www.w3.org/2000/svg">
<path d="M9 405H71V463H17L9 405Z" fill="#E38560"/>
<rect x="411" y="405" width="50" height="58" fill="#E38560"/>
<rect x="220" y="14" width="33" height="14" fill="#E38560"/>
<rect x="204" y="287" width="66" height="38" fill="#E38560"/>
<path d="M466.355 397.548V275.226C466.355 270.998 462.937 267.581 458.71 267.581H451.065V252.29C451.065 248.063 447.647 244.645 443.419 244.645V229.355C456.064 229.355 466.355 219.064 466.355 206.419V22.9355C466.355 10.2904 456.064 0 443.419 0H30.5806C17.9355 0 7.64516 10.2904 7.64516 22.9355V206.419C7.64516 219.064 17.9355 229.355 30.5806 229.355V244.645C26.3529 244.645 22.9355 248.063 22.9355 252.29V267.581H15.2903C11.0625 267.581 7.64516 270.998 7.64516 275.226V397.548C3.41739 397.548 0 400.966 0 405.194V435.774C0 456.852 17.1481 474 38.2258 474H68.8064C73.0342 474 76.4516 470.583 76.4516 466.355H397.548C397.548 470.583 400.966 474 405.194 474H435.774C456.852 474 474 456.852 474 435.774V405.194C474 400.966 470.583 397.548 466.355 397.548ZM344.032 267.581V259.935H435.774V267.581H344.032ZM76.4516 229.355H129.968V244.645H76.4516V229.355ZM142.391 139.287L107.032 111.008V71.9792L122.323 56.6889V84.0968C122.323 86.9943 123.959 89.6395 126.55 90.9392L157.131 106.23C159.279 107.307 161.817 107.307 163.973 106.23L194.554 90.9392C197.138 89.6395 198.774 86.9943 198.774 84.0968V56.6812L214.065 71.9715V111L178.706 139.28C176.894 140.74 175.839 142.934 175.839 145.258V267.581H145.258V145.258C145.258 142.934 144.203 140.74 142.391 139.287ZM282.871 244.645H191.129V229.355H282.871V244.645ZM191.129 275.226V259.935H282.871V275.226V344.032H191.129V275.226ZM295.921 147.498L259.935 111.512V71.9715L286.036 45.871H340.867L366.968 71.9715V111.512L330.982 147.498C329.545 148.928 328.742 150.87 328.742 152.903V267.581H298.161V152.903C298.161 150.87 297.359 148.928 295.921 147.498ZM397.548 244.645H344.032V229.355H397.548V244.645ZM412.839 244.645V221.71H428.129V244.645H412.839ZM229.355 15.2903H244.645V22.9355H229.355V15.2903ZM22.9355 206.419V22.9355C22.9355 18.7154 26.3605 15.2903 30.5806 15.2903H214.065V30.5806C214.065 34.8084 217.482 38.2258 221.71 38.2258H252.29C256.518 38.2258 259.935 34.8084 259.935 30.5806V15.2903H443.419C447.639 15.2903 451.065 18.7154 451.065 22.9355V206.419C451.065 210.639 447.639 214.065 443.419 214.065C443.419 209.837 440.002 206.419 435.774 206.419H405.194C400.966 206.419 397.548 209.837 397.548 214.065H344.032V156.068L380.018 120.083C381.455 118.653 382.258 116.711 382.258 114.677V68.8064C382.258 66.7728 381.455 64.831 380.018 63.4013L349.437 32.8207C348.008 31.3834 346.066 30.5806 344.032 30.5806H282.871C280.837 30.5806 278.895 31.3834 277.466 32.8207L246.885 63.4013C245.448 64.831 244.645 66.7728 244.645 68.8064V114.677C244.645 116.711 245.448 118.653 246.885 120.083L282.871 156.068V214.065H191.129V148.928L226.488 120.648C228.3 119.196 229.355 117.002 229.355 114.677V68.8064C229.355 66.7728 228.552 64.831 227.115 63.4013L196.534 32.8207C194.348 30.6342 191.068 29.9767 188.201 31.1617C185.342 32.339 183.484 35.1372 183.484 38.2258V79.3721L160.548 90.8398L137.613 79.3721V38.2258C137.613 35.1372 135.755 32.339 132.896 31.1617C130.037 29.969 126.749 30.6342 124.563 32.8207L93.982 63.4013C92.5447 64.831 91.7419 66.7728 91.7419 68.8064V114.677C91.7419 117.002 92.797 119.196 94.6089 120.648L129.968 148.928V214.065H76.4516C76.4516 209.837 73.0342 206.419 68.8064 206.419H38.2258C33.998 206.419 30.5806 209.837 30.5806 214.065C26.3605 214.065 22.9355 210.639 22.9355 206.419ZM45.871 221.71H61.1613V244.645H45.871V221.71ZM38.2258 259.935H129.968V267.581H38.2258V259.935ZM61.1613 458.71H38.2258C25.5807 458.71 15.2903 448.419 15.2903 435.774V412.839H61.1613V458.71ZM397.548 405.194V451.065H76.4516V405.194C76.4516 400.966 73.0342 397.548 68.8064 397.548H22.9355V282.871H175.839V351.677C175.839 355.905 179.256 359.323 183.484 359.323H290.516C294.744 359.323 298.161 355.905 298.161 351.677V282.871H451.065V397.548H405.194C400.966 397.548 397.548 400.966 397.548 405.194ZM458.71 435.774C458.71 448.419 448.419 458.71 435.774 458.71H412.839V412.839H458.71V435.774Z" fill="#462E22"/>
<path d="M267.581 275.226H206.419C202.192 275.226 198.774 278.643 198.774 282.871V328.742C198.774 332.97 202.192 336.387 206.419 336.387H267.581C271.808 336.387 275.226 332.97 275.226 328.742V282.871C275.226 278.643 271.808 275.226 267.581 275.226ZM259.935 321.097H214.065V290.516H259.935V321.097Z" fill="#462E22"/>
<path d="M351.677 91.7419C351.677 70.6642 334.529 53.5161 313.452 53.5161C292.374 53.5161 275.226 70.6642 275.226 91.7419C275.226 112.82 292.374 129.968 313.452 129.968C334.529 129.968 351.677 112.82 351.677 91.7419ZM290.516 91.7419C290.516 79.0968 300.807 68.8064 313.452 68.8064C326.097 68.8064 336.387 79.0968 336.387 91.7419C336.387 104.387 326.097 114.677 313.452 114.677C300.807 114.677 290.516 104.387 290.516 91.7419Z" fill="#462E22"/>
</svg>
